<svg width="24" height="25" viewBox="0 0 24 25" fill="none" xmlns="http://www.w3.org/2000/svg">
<path opacity="0.12" d="M17.9012 5.49851C18.1071 5.99653 18.5024 6.3924 19.0001 6.59907L20.7452 7.32198C21.2433 7.52828 21.639 7.92399 21.8453 8.42206C22.0516 8.92012 22.0516 9.47974 21.8453 9.97781L21.1229 11.7218C20.9165 12.2201 20.9162 12.7803 21.1236 13.2783L21.8447 15.0218C21.9469 15.2685 21.9996 15.5329 21.9996 15.7999C21.9997 16.067 21.9471 16.3314 21.8449 16.5781C21.7427 16.8249 21.5929 17.049 21.4041 17.2378C21.2152 17.4266 20.991 17.5764 20.7443 17.6785L19.0004 18.4009C18.5023 18.6068 18.1065 19.0021 17.8998 19.4998L17.1769 21.245C16.9706 21.7431 16.575 22.1388 16.0769 22.3451C15.5789 22.5514 15.0193 22.5514 14.5212 22.3451L12.7773 21.6227C12.2792 21.4169 11.7198 21.4173 11.2221 21.6239L9.47689 22.3458C8.97912 22.5516 8.42001 22.5514 7.92237 22.3453C7.42473 22.1391 7.02925 21.7439 6.82281 21.2464L6.09972 19.5006C5.8938 19.0026 5.49854 18.6067 5.00085 18.4L3.25566 17.6771C2.75783 17.4709 2.36226 17.0754 2.15588 16.5777C1.94951 16.0799 1.94923 15.5205 2.1551 15.0225L2.87746 13.2786C3.08325 12.7805 3.08283 12.2211 2.8763 11.7233L2.15497 9.97678C2.0527 9.7301 2.00004 9.46568 2 9.19863C1.99996 8.93159 2.05253 8.66715 2.15472 8.42043C2.25691 8.17372 2.40671 7.94955 2.59557 7.76075C2.78442 7.57195 3.00862 7.42222 3.25537 7.3201L4.9993 6.59772C5.49687 6.39197 5.89248 5.9972 6.0993 5.50006L6.82218 3.75481C7.02848 3.25674 7.42418 2.86103 7.92222 2.65473C8.42027 2.44842 8.97987 2.44842 9.47792 2.65473L11.2218 3.37712C11.7199 3.58291 12.2793 3.58249 12.7771 3.37595L14.523 2.65585C15.021 2.44966 15.5804 2.4497 16.0784 2.65597C16.5763 2.86223 16.972 3.25783 17.1783 3.75576L17.9014 5.50153L17.9012 5.49851Z" fill="currentColor"/>
<path d="M9 12.5L11 14.5L15.5 10M17.9012 5.49851C18.1071 5.99653 18.5024 6.3924 19.0001 6.59907L20.7452 7.32198C21.2433 7.52828 21.639 7.92399 21.8453 8.42206C22.0516 8.92012 22.0516 9.47974 21.8453 9.97781L21.1229 11.7218C20.9165 12.2201 20.9162 12.7803 21.1236 13.2783L21.8447 15.0218C21.9469 15.2685 21.9996 15.5329 21.9996 15.7999C21.9997 16.067 21.9471 16.3314 21.8449 16.5781C21.7427 16.8249 21.5929 17.049 21.4041 17.2378C21.2152 17.4266 20.991 17.5764 20.7443 17.6785L19.0004 18.4009C18.5023 18.6068 18.1065 19.0021 17.8998 19.4998L17.1769 21.245C16.9706 21.7431 16.575 22.1388 16.0769 22.3451C15.5789 22.5514 15.0193 22.5514 14.5212 22.3451L12.7773 21.6227C12.2792 21.4169 11.7198 21.4173 11.2221 21.6239L9.47689 22.3458C8.97912 22.5516 8.42001 22.5514 7.92237 22.3453C7.42473 22.1391 7.02925 21.7439 6.82281 21.2464L6.09972 19.5006C5.8938 19.0026 5.49854 18.6067 5.00085 18.4L3.25566 17.6771C2.75783 17.4709 2.36226 17.0754 2.15588 16.5777C1.94951 16.0799 1.94923 15.5205 2.1551 15.0225L2.87746 13.2786C3.08325 12.7805 3.08283 12.2211 2.8763 11.7233L2.15497 9.97678C2.0527 9.7301 2.00004 9.46568 2 9.19863C1.99996 8.93159 2.05253 8.66715 2.15472 8.42043C2.25691 8.17372 2.40671 7.94955 2.59557 7.76075C2.78442 7.57195 3.00862 7.42222 3.25537 7.3201L4.9993 6.59772C5.49687 6.39197 5.89248 5.9972 6.0993 5.50006L6.82218 3.75481C7.02848 3.25674 7.42418 2.86103 7.92222 2.65473C8.42027 2.44842 8.97987 2.44842 9.47792 2.65473L11.2218 3.37712C11.7199 3.58291 12.2793 3.58249 12.7771 3.37595L14.523 2.65585C15.021 2.44966 15.5804 2.4497 16.0784 2.65597C16.5763 2.86223 16.972 3.25783 17.1783 3.75576L17.9014 5.50153L17.9012 5.49851Z" stroke="currentColor" stroke-width="2" stroke-linecap="round" stroke-linejoin="round"/>
</svg>