<svg width="24" height="27" viewBox="0 0 24 27" fill="none" xmlns="http://www.w3.org/2000/svg">
<path d="M12 19.041C15.3137 19.041 18 16.3547 18 13.041C18 9.72731 15.3137 7.04102 12 7.04102C8.68629 7.04102 6 9.72731 6 13.041C6 16.3547 8.68629 19.041 12 19.041Z" fill="white"/>
<path d="M12 3.29102C10.0716 3.29102 8.18657 3.86285 6.58319 4.93419C4.97982 6.00553 3.73013 7.52828 2.99218 9.30986C2.25422 11.0914 2.06114 13.0518 2.43735 14.9431C2.81355 16.8344 3.74215 18.5717 5.10571 19.9353C6.46928 21.2989 8.20656 22.2275 10.0979 22.6037C11.9892 22.9799 13.9496 22.7868 15.7312 22.0488C17.5127 21.3109 19.0355 20.0612 20.1068 18.4578C21.1782 16.8544 21.75 14.9694 21.75 13.041C21.745 10.4567 20.7162 7.97961 18.8888 6.1522C17.0614 4.3248 14.5843 3.29598 12 3.29102ZM16.6406 11.3348L11.1469 16.5848C11.0049 16.7184 10.8169 16.7922 10.6219 16.791C10.5266 16.7924 10.4319 16.7748 10.3434 16.7394C10.2549 16.704 10.1743 16.6515 10.1063 16.5848L7.35938 13.9598C7.28319 13.8933 7.22123 13.8121 7.17722 13.7211C7.13321 13.63 7.10806 13.531 7.10328 13.43C7.0985 13.3291 7.11419 13.2281 7.14941 13.1334C7.18463 13.0386 7.23865 12.9519 7.30822 12.8785C7.3778 12.8052 7.46149 12.7466 7.55426 12.7064C7.64703 12.6662 7.74698 12.6452 7.84809 12.6446C7.94919 12.644 8.04938 12.6639 8.14261 12.703C8.23585 12.7421 8.32021 12.7997 8.39063 12.8722L10.6219 15.0004L15.6094 10.2473C15.7552 10.12 15.9446 10.0541 16.1379 10.0632C16.3312 10.0724 16.5135 10.1559 16.6467 10.2963C16.7798 10.4368 16.8536 10.6232 16.8524 10.8168C16.8513 11.0103 16.7754 11.1959 16.6406 11.3348Z" fill="currentColor"/>
</svg>