<svg width="24" height="25" viewBox="0 0 24 25" stroke="currentColor" fill="none" xmlns="http://www.w3.org/2000/svg">
<path d="M6.5 13.5L7.28446 15.0689C7.54995 15.5999 7.68269 15.8654 7.86003 16.0954C8.01739 16.2996 8.20041 16.4826 8.40455 16.64C8.63462 16.8173 8.9001 16.9501 9.43108 17.2155L11 18L9.43108 18.7845C8.9001 19.0499 8.63462 19.1827 8.40455 19.36C8.20041 19.5174 8.01739 19.7004 7.86003 19.9046C7.68269 20.1346 7.54995 20.4001 7.28446 20.9311L6.5 22.5L5.71554 20.9311C5.45005 20.4001 5.31731 20.1346 5.13997 19.9046C4.98261 19.7004 4.79959 19.5174 4.59545 19.36C4.36538 19.1827 4.0999 19.0499 3.56892 18.7845L2 18L3.56892 17.2155C4.0999 16.9501 4.36538 16.8173 4.59545 16.64C4.79959 16.4826 4.98261 16.2996 5.13997 16.0954C5.31731 15.8654 5.45005 15.5999 5.71554 15.0689L6.5 13.5Z" stroke="currentColor" stroke-width="2" stroke-linecap="round" stroke-linejoin="round"/>
<path d="M15 2.5L16.1786 5.56442C16.4606 6.29765 16.6016 6.66426 16.8209 6.97264C17.0153 7.24595 17.254 7.48475 17.5274 7.67909C17.8357 7.89836 18.2024 8.03937 18.9356 8.32138L22 9.5L18.9356 10.6786C18.2024 10.9606 17.8357 11.1016 17.5274 11.3209C17.254 11.5153 17.0153 11.754 16.8209 12.0274C16.6016 12.3357 16.4606 12.7024 16.1786 13.4356L15 16.5L13.8214 13.4356C13.5394 12.7024 13.3984 12.3357 13.1791 12.0274C12.9847 11.754 12.746 11.5153 12.4726 11.3209C12.1643 11.1016 11.7976 10.9606 11.0644 10.6786L8 9.5L11.0644 8.32138C11.7976 8.03937 12.1643 7.89836 12.4726 7.67909C12.746 7.48475 12.9847 7.24595 13.1791 6.97264C13.3984 6.66426 13.5394 6.29765 13.8214 5.56442L15 2.5Z" stroke="currentColor" stroke-width="2" stroke-linecap="round" stroke-linejoin="round"/>
</svg>